<svg xmlns="http://www.w3.org/2000/svg" xmlns:xlink="http://www.w3.org/1999/xlink" width="1920" zoomAndPan="magnify" viewBox="0 0 1440 540.000001" height="720" preserveAspectRatio="xMidYMid meet" version="1.0"><defs><g/></defs><path fill="#8b0204" d="M 193.230469 344.011719 C 193.644531 336.96875 193.21875 330.039062 191.949219 323.378906 C 188.449219 319.542969 185.269531 315.355469 182.464844 310.894531 C 182.828125 316.148438 182.714844 321.40625 182.140625 326.570312 C 185.023438 332.699219 188.75 338.558594 193.230469 344.011719 " fill-opacity="1" fill-rule="nonzero"/><path fill="#8b0204" d="M 182.136719 232.679688 C 182.714844 237.84375 182.828125 243.101562 182.46875 248.355469 C 185.265625 243.894531 188.449219 239.703125 191.949219 235.867188 C 193.21875 229.207031 193.648438 222.28125 193.230469 215.238281 C 188.75 220.699219 185.023438 226.554688 182.136719 232.679688 " fill-opacity="1" fill-rule="nonzero"/><path fill="#8b0204" d="M 212.101562 334.394531 C 210.320312 327.570312 207.773438 321.109375 204.511719 315.171875 C 199.992188 312.601562 195.671875 309.601562 191.632812 306.222656 C 193.597656 311.109375 195.117188 316.140625 196.164062 321.230469 C 200.804688 326.171875 206.15625 330.589844 212.101562 334.394531 " fill-opacity="1" fill-rule="nonzero"/><path fill="#8b0204" d="M 178.785156 320.519531 C 179.085938 313.246094 178.414062 305.890625 176.765625 298.453125 C 175.890625 296.449219 175.070312 294.367188 174.304688 292.214844 C 174.238281 294.5 174.101562 296.734375 173.890625 298.910156 C 174.617188 306.488281 176.253906 313.695312 178.785156 320.519531 " fill-opacity="1" fill-rule="nonzero"/><path fill="#8b0204" d="M 191.105469 316.515625 C 189.140625 309.507812 186.234375 302.714844 182.363281 296.152344 C 180.914062 294.519531 179.492188 292.792969 178.097656 290.976562 C 178.738281 293.171875 179.296875 295.339844 179.769531 297.476562 C 182.804688 304.460938 186.589844 310.808594 191.105469 316.515625 " fill-opacity="1" fill-rule="nonzero"/><path fill="#ce2922" d="M 191.632812 253.023438 C 195.671875 249.648438 199.992188 246.648438 204.507812 244.078125 C 207.773438 238.140625 210.320312 231.683594 212.101562 224.855469 C 206.15625 228.65625 200.804688 233.082031 196.164062 238.015625 C 195.117188 243.109375 193.597656 248.140625 191.632812 253.023438 " fill-opacity="1" fill-rule="nonzero"/><path fill="#8b0204" d="M 187.09375 186.269531 C 185.230469 188.667969 183.488281 191.105469 181.902344 193.523438 C 179.21875 197.609375 176.855469 201.808594 174.863281 206.007812 C 177.601562 212.214844 179.644531 218.625 180.949219 225.078125 C 184.183594 219.339844 188.109375 213.878906 192.628906 208.820312 C 192.035156 204.207031 191.082031 199.488281 189.792969 194.777344 C 189.03125 191.988281 188.125 189.132812 187.09375 186.269531 " fill-opacity="1" fill-rule="nonzero"/><path fill="#8b0204" d="M 174.300781 267.035156 C 175.070312 264.878906 175.890625 262.796875 176.769531 260.789062 C 178.417969 253.355469 179.085938 246 178.789062 238.726562 C 176.253906 245.550781 174.617188 252.757812 173.890625 260.339844 C 174.101562 262.515625 174.238281 264.75 174.300781 267.035156 " fill-opacity="1" fill-rule="nonzero"/><path fill="#8b0204" d="M 230.675781 343.644531 C 233.390625 344.671875 236.234375 345.617188 239.148438 346.464844 C 238.304688 343.558594 237.359375 340.710938 236.328125 337.992188 C 234.597656 333.425781 232.589844 329.042969 230.363281 324.960938 C 223.734375 323.53125 217.351562 321.414062 211.359375 318.671875 C 214.097656 324.664062 216.210938 331.050781 217.644531 337.683594 C 221.730469 339.910156 226.109375 341.914062 230.675781 343.644531 " fill-opacity="1" fill-rule="nonzero"/><path fill="#8b0204" d="M 131.105469 340.683594 C 130.246094 345.253906 129.691406 350.042969 129.460938 354.917969 C 129.320312 357.824219 129.296875 360.824219 129.394531 363.851562 C 131.890625 362.152344 134.304688 360.371094 136.582031 358.550781 C 140.394531 355.488281 143.941406 352.222656 147.128906 348.847656 C 146.445312 342.09375 146.480469 335.371094 147.234375 328.832031 C 142.390625 333.285156 136.96875 337.265625 131.105469 340.683594 " fill-opacity="1" fill-rule="nonzero"/><path fill="#ce2922" d="M 190.542969 182.019531 C 192.003906 185.824219 193.265625 189.660156 194.296875 193.429688 C 195.300781 197.085938 196.109375 200.8125 196.707031 204.527344 C 199.382812 201.871094 202.226562 199.332031 205.179688 196.964844 C 208.234375 194.519531 211.511719 192.160156 214.925781 189.945312 C 214.507812 184.457031 213.742188 179.496094 212.914062 175.25 C 208.976562 173.726562 204.949219 172.394531 200.808594 171.316406 C 197.644531 174.261719 194.109375 177.828125 190.542969 182.019531 " fill-opacity="1" fill-rule="nonzero"/><path fill="#ce2922" d="M 136.582031 200.703125 C 134.304688 198.875 131.890625 197.097656 129.394531 195.398438 C 129.296875 198.429688 129.320312 201.429688 129.460938 204.328125 C 129.691406 209.207031 130.242188 213.996094 131.105469 218.566406 C 136.96875 221.980469 142.386719 225.957031 147.238281 230.417969 C 146.480469 223.875 146.445312 217.15625 147.128906 210.402344 C 143.9375 207.019531 140.390625 203.757812 136.582031 200.703125 " fill-opacity="1" fill-rule="nonzero"/><path fill="#ce2922" d="M 252.851562 322.597656 C 254.09375 322.597656 255.320312 322.578125 256.535156 322.539062 C 254.832031 320.027344 253.050781 317.617188 251.230469 315.355469 C 248.175781 311.542969 244.914062 307.992188 241.527344 304.796875 C 238.246094 305.128906 235 305.296875 231.886719 305.296875 C 228.425781 305.296875 224.949219 305.101562 221.523438 304.707031 C 225.972656 309.550781 229.949219 314.964844 233.367188 320.828125 C 237.945312 321.6875 242.734375 322.242188 247.601562 322.472656 C 249.378906 322.558594 251.128906 322.597656 252.851562 322.597656 " fill-opacity="1" fill-rule="nonzero"/><path fill="#ce2922" d="M 244.429688 211.375 C 243.378906 215.316406 242.144531 219.160156 240.765625 222.816406 C 239.425781 226.363281 237.890625 229.855469 236.191406 233.210938 C 239.914062 232.628906 243.707031 232.25 247.488281 232.074219 C 249.355469 231.988281 251.1875 231.945312 252.984375 231.945312 C 255.125 231.945312 257.316406 232.003906 259.503906 232.121094 C 262.425781 227.363281 264.753906 222.839844 266.589844 218.878906 C 264.300781 215.359375 261.839844 211.964844 259.183594 208.734375 C 254.855469 209.253906 249.84375 210.066406 244.429688 211.375 " fill-opacity="1" fill-rule="nonzero"/><path fill="#ce2922" d="M 265.664062 294.410156 C 263.253906 292.542969 260.816406 290.796875 258.410156 289.214844 C 254.332031 286.539062 250.128906 284.167969 245.914062 282.171875 C 239.675781 284.925781 233.28125 286.96875 226.867188 288.265625 C 232.605469 291.507812 238.0625 295.429688 243.113281 299.945312 C 247.722656 299.347656 252.449219 298.394531 257.15625 297.109375 C 259.9375 296.351562 262.789062 295.445312 265.664062 294.410156 " fill-opacity="1" fill-rule="nonzero"/><path fill="#8b0204" d="M 280.867188 250.855469 C 279.785156 246.832031 278.480469 242.90625 276.980469 239.074219 C 272.671875 238.226562 267.609375 237.4375 261.988281 237.003906 C 259.769531 240.421875 257.410156 243.699219 254.96875 246.75 C 252.589844 249.726562 250.050781 252.570312 247.414062 255.222656 C 251.140625 255.828125 254.867188 256.636719 258.503906 257.632812 C 262.269531 258.667969 266.105469 259.929688 269.910156 261.390625 C 274.222656 257.71875 277.875 254.089844 280.867188 250.855469 " fill-opacity="1" fill-rule="nonzero"/><path fill="#8b0204" d="M 265.664062 264.835938 C 262.808594 263.808594 259.953125 262.902344 257.15625 262.140625 C 252.441406 260.855469 247.71875 259.898438 243.113281 259.308594 C 238.039062 263.839844 232.585938 267.761719 226.867188 270.992188 C 233.320312 272.292969 239.71875 274.335938 245.925781 277.074219 C 250.144531 275.070312 254.339844 272.703125 258.410156 270.03125 C 260.824219 268.453125 263.257812 266.707031 265.664062 264.835938 " fill-opacity="1" fill-rule="nonzero"/><path fill="#8b0204" d="M 201.585938 250.347656 C 195.527344 254.378906 189.964844 259.246094 184.921875 264.953125 C 183.8125 266.839844 182.609375 268.726562 181.320312 270.613281 C 183.207031 269.324219 185.097656 268.121094 186.980469 267.011719 C 192.6875 261.96875 197.554688 256.40625 201.585938 250.347656 " fill-opacity="1" fill-rule="nonzero"/><path fill="#ce2922" d="M 239.148438 212.78125 C 236.242188 213.628906 233.398438 214.574219 230.675781 215.605469 C 226.109375 217.335938 221.726562 219.339844 217.644531 221.570312 C 216.210938 228.199219 214.097656 234.582031 211.359375 240.574219 C 217.351562 237.832031 223.734375 235.71875 230.363281 234.289062 C 232.59375 230.207031 234.601562 225.820312 236.328125 221.257812 C 237.359375 218.535156 238.308594 215.691406 239.148438 212.78125 " fill-opacity="1" fill-rule="nonzero"/><path fill="#8b0204" d="M 179.769531 261.773438 C 179.296875 263.910156 178.738281 266.078125 178.09375 268.269531 C 179.492188 266.457031 180.914062 264.734375 182.367188 263.09375 C 186.234375 256.535156 189.144531 249.742188 191.105469 242.734375 C 186.585938 248.441406 182.804688 254.789062 179.769531 261.773438 " fill-opacity="1" fill-rule="nonzero"/><path fill="#8b0204" d="M 151.386719 215.238281 C 150.96875 222.28125 151.402344 229.207031 152.667969 235.867188 C 156.171875 239.707031 159.351562 243.894531 162.148438 248.355469 C 161.792969 243.109375 161.902344 237.847656 162.480469 232.679688 C 159.59375 226.546875 155.863281 220.691406 151.386719 215.238281 " fill-opacity="1" fill-rule="nonzero"/><path fill="#8b0204" d="M 188.839844 289.679688 C 195.394531 293.550781 202.191406 296.457031 209.199219 298.421875 C 203.496094 293.910156 197.15625 290.128906 190.183594 287.097656 C 188.042969 286.625 185.878906 286.074219 183.683594 285.425781 C 185.488281 286.816406 187.207031 288.238281 188.839844 289.679688 " fill-opacity="1" fill-rule="nonzero"/><path fill="#8b0204" d="M 208.035156 358.550781 C 210.308594 360.367188 212.71875 362.148438 215.222656 363.847656 C 215.316406 360.820312 215.296875 357.824219 215.15625 354.917969 C 214.925781 350.039062 214.371094 345.253906 213.511719 340.679688 C 207.648438 337.269531 202.234375 333.285156 197.378906 328.832031 C 198.136719 335.378906 198.171875 342.097656 197.484375 348.851562 C 200.671875 352.222656 204.222656 355.484375 208.035156 358.550781 " fill-opacity="1" fill-rule="nonzero"/><path fill="#ce2922" d="M 213.511719 218.570312 C 214.375 213.996094 214.925781 209.207031 215.15625 204.328125 C 215.292969 201.425781 215.320312 198.429688 215.222656 195.398438 C 212.71875 197.101562 210.308594 198.878906 208.035156 200.703125 C 204.226562 203.757812 200.679688 207.019531 197.484375 210.398438 C 198.171875 217.148438 198.136719 223.871094 197.378906 230.417969 C 202.230469 225.960938 207.648438 221.980469 213.511719 218.570312 " fill-opacity="1" fill-rule="nonzero"/><path fill="#8b0204" d="M 166.589844 190.851562 C 168.667969 194.015625 170.589844 197.308594 172.308594 200.664062 C 174.035156 197.296875 175.957031 194.003906 178.03125 190.851562 C 180.175781 187.585938 182.5625 184.328125 185.128906 181.164062 C 183.035156 176.089844 180.789062 171.625 178.695312 167.851562 C 176.582031 167.734375 174.453125 167.660156 172.308594 167.660156 C 170.164062 167.660156 168.039062 167.734375 165.921875 167.851562 C 163.832031 171.625 161.582031 176.089844 159.488281 181.164062 C 162.054688 184.324219 164.441406 187.582031 166.589844 190.851562 " fill-opacity="1" fill-rule="nonzero"/><path fill="#ce2922" d="M 83.535156 285.34375 C 86.695312 283.269531 89.988281 281.347656 93.347656 279.625 C 89.984375 277.894531 86.6875 275.976562 83.535156 273.902344 C 80.261719 271.75 77 269.363281 73.84375 266.804688 C 68.578125 268.976562 63.957031 271.320312 60.097656 273.480469 C 59.972656 275.664062 59.890625 277.859375 59.890625 280.074219 C 59.890625 281.972656 59.941406 283.859375 60.03125 285.734375 C 63.902344 287.90625 68.546875 290.257812 73.84375 292.441406 C 77.019531 289.875 80.277344 287.488281 83.535156 285.34375 " fill-opacity="1" fill-rule="nonzero"/><path fill="#8b0204" d="M 191.136719 275.167969 C 189.132812 276.042969 187.054688 276.863281 184.898438 277.632812 C 187.191406 277.695312 189.433594 277.832031 191.617188 278.046875 C 199.191406 277.316406 206.390625 275.679688 213.210938 273.148438 C 205.9375 272.851562 198.574219 273.515625 191.136719 275.167969 " fill-opacity="1" fill-rule="nonzero"/><path fill="#8b0204" d="M 213.214844 286.101562 C 206.40625 283.574219 199.214844 281.941406 191.652344 281.210938 C 189.460938 281.421875 187.214844 281.5625 184.917969 281.628906 C 187.066406 282.394531 189.144531 283.210938 191.144531 284.082031 C 198.578125 285.734375 205.9375 286.402344 213.214844 286.101562 " fill-opacity="1" fill-rule="nonzero"/><path fill="#8b0204" d="M 220.007812 274.46875 C 215.28125 276.613281 210.3125 278.34375 205.199219 279.625 C 210.304688 280.910156 215.269531 282.640625 220 284.785156 C 226.726562 283.925781 233.445312 282.195312 240.007812 279.625 C 233.441406 277.058594 226.726562 275.324219 220.007812 274.46875 " fill-opacity="1" fill-rule="nonzero"/><path fill="#8b0204" d="M 231.488281 258.550781 C 226.265625 258.550781 221.078125 259.035156 216.066406 259.984375 C 212.222656 263.492188 208.03125 266.671875 203.578125 269.464844 C 205.59375 269.328125 207.609375 269.257812 209.601562 269.257812 C 212.824219 269.257812 216.074219 269.4375 219.261719 269.792969 C 225.390625 266.90625 231.25 263.179688 236.699219 258.703125 C 234.949219 258.605469 233.207031 258.550781 231.488281 258.550781 " fill-opacity="1" fill-rule="nonzero"/><path fill="#ce2922" d="M 236.699219 300.546875 C 231.246094 296.066406 225.382812 292.335938 219.242188 289.449219 C 215.898438 289.824219 212.734375 290.003906 209.585938 290.003906 C 207.605469 290.003906 205.609375 289.9375 203.597656 289.796875 C 208.046875 292.589844 212.226562 295.769531 216.066406 299.265625 C 221.078125 300.21875 226.261719 300.699219 231.488281 300.699219 C 233.207031 300.699219 234.953125 300.652344 236.699219 300.546875 " fill-opacity="1" fill-rule="nonzero"/><path fill="#8b0204" d="M 251.230469 243.898438 C 253.046875 241.632812 254.828125 239.222656 256.535156 236.710938 C 255.324219 236.671875 254.09375 236.652344 252.851562 236.652344 C 251.128906 236.652344 249.378906 236.6875 247.601562 236.777344 C 242.726562 237.007812 237.9375 237.5625 233.367188 238.421875 C 229.949219 244.289062 225.972656 249.703125 221.515625 254.554688 C 224.945312 254.15625 228.4375 253.957031 231.925781 253.957031 C 235.097656 253.957031 238.324219 254.121094 241.53125 254.445312 C 244.914062 251.253906 248.175781 247.710938 251.230469 243.898438 " fill-opacity="1" fill-rule="nonzero"/><path fill="#8b0204" d="M 201.585938 308.902344 C 197.558594 302.855469 192.707031 297.304688 187.019531 292.273438 C 185.125 291.160156 183.230469 289.957031 181.335938 288.660156 C 182.625 290.539062 183.816406 292.417969 184.921875 294.296875 C 189.964844 300 195.527344 304.867188 201.585938 308.902344 " fill-opacity="1" fill-rule="nonzero"/><path fill="#8b0204" d="M 227.078125 239.828125 C 220.253906 241.613281 213.792969 244.160156 207.855469 247.421875 C 205.285156 251.945312 202.28125 256.265625 198.910156 260.300781 C 203.792969 258.335938 208.828125 256.816406 213.917969 255.769531 C 218.855469 251.128906 223.273438 245.773438 227.078125 239.828125 " fill-opacity="1" fill-rule="nonzero"/><path fill="#8b0204" d="M 188.839844 269.570312 C 187.199219 271.019531 185.472656 272.441406 183.664062 273.839844 C 185.855469 273.195312 188.023438 272.636719 190.15625 272.164062 C 197.140625 269.128906 203.488281 265.347656 209.199219 260.828125 C 202.1875 262.792969 195.398438 265.703125 188.839844 269.570312 " fill-opacity="1" fill-rule="nonzero"/><path fill="#8b0204" d="M 227.082031 319.421875 C 223.277344 313.480469 218.863281 308.132812 213.929688 303.488281 C 208.835938 302.445312 203.800781 300.925781 198.921875 298.96875 C 202.292969 303.003906 205.292969 307.316406 207.855469 311.828125 C 213.796875 315.089844 220.25 317.636719 227.082031 319.421875 " fill-opacity="1" fill-rule="nonzero"/><path fill="#8b0204" d="M 219.8125 192.433594 C 220.023438 196.496094 220.042969 200.527344 219.859375 204.445312 C 219.683594 208.21875 219.296875 212.015625 218.722656 215.742188 C 222.082031 214.042969 225.570312 212.507812 229.117188 211.167969 C 232.769531 209.789062 236.621094 208.554688 240.554688 207.5 C 241.855469 202.121094 242.664062 197.148438 243.1875 192.835938 C 239.914062 190.167969 236.476562 187.699219 232.910156 185.414062 C 228.980469 187.242188 224.511719 189.542969 219.8125 192.433594 " fill-opacity="1" fill-rule="nonzero"/><path fill="#8b0204" d="M 104.058594 207.5 C 107.996094 208.554688 111.84375 209.789062 115.5 211.167969 C 119.035156 212.5 122.527344 214.039062 125.898438 215.742188 C 125.316406 212.011719 124.933594 208.21875 124.761719 204.445312 C 124.574219 200.539062 124.589844 196.496094 124.808594 192.433594 C 120.105469 189.542969 115.640625 187.238281 111.707031 185.414062 C 108.140625 187.703125 104.703125 190.171875 101.429688 192.835938 C 101.953125 197.144531 102.761719 202.125 104.058594 207.5 " fill-opacity="1" fill-rule="nonzero"/><path fill="#ce2922" d="M 129.6875 189.945312 C 133.109375 192.164062 136.386719 194.523438 139.433594 196.964844 C 142.390625 199.332031 145.234375 201.871094 147.910156 204.527344 C 148.507812 200.804688 149.316406 197.078125 150.316406 193.425781 C 151.351562 189.660156 152.613281 185.824219 154.074219 182.015625 C 150.503906 177.820312 146.972656 174.257812 143.808594 171.3125 C 139.675781 172.394531 135.640625 173.726562 131.703125 175.25 C 130.875 179.496094 130.113281 184.453125 129.6875 189.945312 " fill-opacity="1" fill-rule="nonzero"/><path fill="#ce2922" d="M 78.03125 218.878906 C 79.863281 222.839844 82.1875 227.363281 85.113281 232.125 C 87.320312 232.003906 89.523438 231.949219 91.667969 231.949219 C 93.453125 231.949219 95.277344 231.984375 97.125 232.074219 C 100.910156 232.25 104.703125 232.632812 108.429688 233.210938 C 106.722656 229.847656 105.1875 226.359375 103.855469 222.816406 C 102.46875 219.148438 101.238281 215.304688 100.1875 211.375 C 94.769531 210.070312 89.761719 209.253906 85.433594 208.734375 C 82.777344 211.964844 80.316406 215.363281 78.03125 218.878906 " fill-opacity="1" fill-rule="nonzero"/><path fill="#8b0204" d="M 74.707031 261.390625 C 78.515625 259.929688 82.351562 258.664062 86.113281 257.632812 C 89.757812 256.636719 93.480469 255.824219 97.203125 255.222656 C 94.570312 252.574219 92.03125 249.730469 89.648438 246.753906 C 87.203125 243.695312 84.84375 240.417969 82.625 237.003906 C 77.011719 237.433594 71.949219 238.222656 67.640625 239.074219 C 66.136719 242.90625 64.828125 246.832031 63.75 250.855469 C 66.746094 254.085938 70.394531 257.722656 74.707031 261.390625 " fill-opacity="1" fill-rule="nonzero"/><path fill="#8b0204" d="M 162.660156 193.433594 C 161.089844 191.050781 159.367188 188.648438 157.523438 186.269531 C 156.492188 189.132812 155.585938 191.988281 154.824219 194.777344 C 153.539062 199.484375 152.585938 204.210938 151.988281 208.824219 C 156.507812 213.878906 160.433594 219.335938 163.671875 225.078125 C 164.972656 218.621094 167.015625 212.21875 169.753906 206.011719 C 167.75 201.773438 165.363281 197.542969 162.660156 193.433594 " fill-opacity="1" fill-rule="nonzero"/><path fill="#8b0204" d="M 82.628906 322.246094 C 84.851562 318.820312 87.214844 315.539062 89.648438 312.503906 C 92.019531 309.539062 94.554688 306.695312 97.207031 304.03125 C 93.511719 303.433594 89.789062 302.621094 86.113281 301.613281 C 82.34375 300.585938 78.507812 299.320312 74.699219 297.855469 C 70.296875 301.605469 66.574219 305.320312 63.550781 308.601562 C 64.578125 312.523438 65.824219 316.355469 67.25 320.097656 C 71.636719 320.980469 76.847656 321.800781 82.628906 322.246094 " fill-opacity="1" fill-rule="nonzero"/><path fill="#8b0204" d="M 170.726562 298.910156 C 170.515625 296.730469 170.378906 294.5 170.3125 292.214844 C 169.546875 294.371094 168.722656 296.453125 167.847656 298.460938 C 166.199219 305.894531 165.53125 313.253906 165.828125 320.523438 C 168.359375 313.699219 170 306.492188 170.726562 298.910156 " fill-opacity="1" fill-rule="nonzero"/><path fill="#8b0204" d="M 166.523438 290.980469 C 165.128906 292.792969 163.703125 294.515625 162.25 296.152344 C 158.386719 302.714844 155.472656 309.503906 153.507812 316.515625 C 158.027344 310.808594 161.816406 304.460938 164.847656 297.476562 C 165.316406 295.339844 165.878906 293.171875 166.523438 290.980469 " fill-opacity="1" fill-rule="nonzero"/><path fill="#8b0204" d="M 153.511719 242.734375 C 155.476562 249.742188 158.382812 256.535156 162.253906 263.09375 C 163.703125 264.730469 165.128906 266.460938 166.523438 268.269531 C 165.878906 266.074219 165.320312 263.90625 164.847656 261.769531 C 161.8125 254.785156 158.03125 248.4375 153.511719 242.734375 " fill-opacity="1" fill-rule="nonzero"/><path fill="#8b0204" d="M 162.480469 326.574219 C 161.902344 321.402344 161.789062 316.144531 162.148438 310.898438 C 159.351562 315.355469 156.171875 319.542969 152.667969 323.378906 C 151.398438 330.039062 150.96875 336.96875 151.386719 344.015625 C 155.863281 338.558594 159.589844 332.703125 162.480469 326.574219 " fill-opacity="1" fill-rule="nonzero"/><path fill="#ce2922" d="M 266.832031 340.894531 C 264.964844 336.8125 262.554688 332.09375 259.503906 327.128906 C 257.316406 327.242188 255.132812 327.300781 253.011719 327.300781 C 251.207031 327.300781 249.363281 327.261719 247.488281 327.175781 C 243.714844 327 239.917969 326.617188 236.191406 326.035156 C 237.894531 329.402344 239.425781 332.890625 240.761719 336.433594 C 242.140625 340.085938 243.375 343.929688 244.429688 347.867188 C 250.113281 349.246094 255.363281 350.078125 259.835938 350.59375 C 262.335938 347.496094 264.667969 344.253906 266.832031 340.894531 " fill-opacity="1" fill-rule="nonzero"/><path fill="#8b0204" d="M 269.914062 297.859375 C 266.105469 299.324219 262.273438 300.582031 258.507812 301.613281 C 254.832031 302.621094 251.109375 303.433594 247.410156 304.03125 C 250.066406 306.703125 252.605469 309.546875 254.96875 312.503906 C 257.410156 315.546875 259.769531 318.824219 261.988281 322.242188 C 267.769531 321.800781 272.980469 320.980469 277.367188 320.097656 C 278.792969 316.355469 280.039062 312.523438 281.066406 308.605469 C 278.039062 305.320312 274.316406 301.609375 269.914062 297.859375 " fill-opacity="1" fill-rule="nonzero"/><path fill="#8b0204" d="M 240.554688 351.75 C 236.640625 350.703125 232.792969 349.46875 229.117188 348.082031 C 225.578125 346.746094 222.085938 345.207031 218.71875 343.503906 C 219.296875 347.234375 219.683594 351.03125 219.859375 354.804688 C 220.042969 358.71875 220.023438 362.757812 219.8125 366.820312 C 224.832031 369.90625 229.613281 372.339844 233.726562 374.21875 C 237.035156 372.054688 240.234375 369.734375 243.292969 367.242188 C 242.773438 362.753906 241.9375 357.464844 240.554688 351.75 " fill-opacity="1" fill-rule="nonzero"/><path fill="#ce2922" d="M 132.511719 224.851562 C 134.296875 231.683594 136.847656 238.140625 140.109375 244.078125 C 144.625 246.648438 148.945312 249.644531 152.980469 253.023438 C 151.019531 248.140625 149.5 243.105469 148.453125 238.011719 C 143.8125 233.078125 138.453125 228.660156 132.511719 224.851562 " fill-opacity="1" fill-rule="nonzero"/><path fill="#ce2922" d="M 284.519531 273.480469 C 280.660156 271.324219 276.039062 268.976562 270.769531 266.804688 C 267.617188 269.367188 264.359375 271.75 261.082031 273.90625 C 257.929688 275.976562 254.636719 277.898438 251.265625 279.625 C 254.625 281.351562 257.921875 283.269531 261.082031 285.34375 C 264.34375 287.492188 267.597656 289.875 270.769531 292.445312 C 276.066406 290.261719 280.714844 287.902344 284.585938 285.734375 C 284.675781 283.859375 284.726562 281.976562 284.726562 280.078125 C 284.726562 277.863281 284.644531 275.664062 284.519531 273.480469 " fill-opacity="1" fill-rule="nonzero"/><path fill="#8b0204" d="M 177.46875 231.933594 C 176.613281 225.210938 174.882812 218.492188 172.308594 211.921875 C 169.734375 218.492188 168 225.21875 167.148438 231.9375 C 169.296875 236.675781 171.027344 241.636719 172.304688 246.746094 C 173.589844 241.636719 175.320312 236.671875 177.46875 231.933594 " fill-opacity="1" fill-rule="nonzero"/><path fill="#8b0204" d="M 124.808594 366.820312 C 124.589844 362.75 124.574219 358.710938 124.761719 354.804688 C 124.933594 351.03125 125.316406 347.242188 125.894531 343.507812 C 122.542969 345.203125 119.050781 346.742188 115.5 348.082031 C 111.824219 349.46875 107.980469 350.699219 104.058594 351.75 C 102.679688 357.46875 101.839844 362.753906 101.324219 367.238281 C 104.382812 369.734375 107.582031 372.050781 110.890625 374.21875 C 115.003906 372.34375 119.785156 369.910156 124.808594 366.820312 " fill-opacity="1" fill-rule="nonzero"/><path fill="#8b0204" d="M 167.851562 260.792969 C 168.722656 262.800781 169.546875 264.878906 170.3125 267.035156 C 170.378906 264.75 170.515625 262.515625 170.726562 260.335938 C 170 252.757812 168.363281 245.554688 165.832031 238.730469 C 165.535156 246.003906 166.199219 253.363281 167.851562 260.792969 " fill-opacity="1" fill-rule="nonzero"/><path fill="#ce2922" d="M 100.1875 347.875 C 101.242188 343.933594 102.476562 340.085938 103.855469 336.433594 C 105.1875 332.898438 106.722656 329.40625 108.429688 326.039062 C 104.695312 326.617188 100.902344 327 97.125 327.175781 C 95.253906 327.261719 93.410156 327.300781 91.605469 327.300781 C 89.480469 327.300781 87.300781 327.242188 85.113281 327.128906 C 82.0625 332.09375 79.648438 336.816406 77.78125 340.894531 C 79.949219 344.253906 82.28125 347.496094 84.78125 350.59375 C 89.253906 350.078125 94.503906 349.246094 100.1875 347.875 " fill-opacity="1" fill-rule="nonzero"/><path fill="#8b0204" d="M 117.535156 239.828125 C 121.339844 245.773438 125.765625 251.132812 130.699219 255.769531 C 135.792969 256.816406 140.824219 258.335938 145.710938 260.296875 C 142.332031 256.261719 139.328125 251.941406 136.761719 247.421875 C 130.820312 244.160156 124.363281 241.613281 117.535156 239.828125 " fill-opacity="1" fill-rule="nonzero"/><path fill="#8b0204" d="M 124.628906 284.785156 C 129.355469 282.640625 134.320312 280.914062 139.425781 279.628906 C 134.304688 278.34375 129.332031 276.613281 124.601562 274.46875 C 117.886719 275.324219 111.167969 277.054688 104.605469 279.625 C 111.179688 282.199219 117.90625 283.933594 124.628906 284.785156 " fill-opacity="1" fill-rule="nonzero"/><path fill="#8b0204" d="M 152.980469 306.222656 C 148.945312 309.601562 144.625 312.601562 140.109375 315.171875 C 136.847656 321.105469 134.296875 327.570312 132.511719 334.398438 C 138.457031 330.589844 143.808594 326.171875 148.453125 321.234375 C 149.5 316.148438 151.019531 311.113281 152.980469 306.222656 " fill-opacity="1" fill-rule="nonzero"/><path fill="#ce2922" d="M 113.125 300.699219 C 118.351562 300.699219 123.535156 300.21875 128.550781 299.265625 C 132.390625 295.761719 136.570312 292.589844 141.019531 289.800781 C 139.011719 289.9375 137.007812 290.003906 135.03125 290.003906 C 131.882812 290.003906 128.722656 289.824219 125.378906 289.449219 C 119.238281 292.339844 113.375 296.066406 107.914062 300.546875 C 109.664062 300.648438 111.410156 300.699219 113.125 300.699219 " fill-opacity="1" fill-rule="nonzero"/><path fill="#8b0204" d="M 107.917969 258.703125 C 113.371094 263.179688 119.230469 266.902344 125.359375 269.792969 C 128.546875 269.4375 131.796875 269.257812 135.015625 269.257812 C 137.007812 269.257812 139.023438 269.328125 141.039062 269.464844 C 136.578125 266.664062 132.390625 263.484375 128.550781 259.984375 C 123.546875 259.03125 118.363281 258.546875 113.140625 258.546875 C 111.421875 258.546875 109.671875 258.605469 107.917969 258.703125 " fill-opacity="1" fill-rule="nonzero"/><path fill="#8b0204" d="M 153.476562 284.082031 C 155.476562 283.210938 157.550781 282.390625 159.699219 281.628906 C 157.414062 281.5625 155.183594 281.425781 153.007812 281.210938 C 145.433594 281.941406 138.234375 283.574219 131.414062 286.101562 C 138.683594 286.398438 146.042969 285.734375 153.476562 284.082031 " fill-opacity="1" fill-rule="nonzero"/><path fill="#8b0204" d="M 155.777344 269.570312 C 149.21875 265.699219 142.425781 262.792969 135.417969 260.828125 C 141.128906 265.34375 147.472656 269.128906 154.460938 272.164062 C 156.59375 272.636719 158.761719 273.195312 160.953125 273.839844 C 159.144531 272.445312 157.417969 271.019531 155.777344 269.570312 " fill-opacity="1" fill-rule="nonzero"/><path fill="#8b0204" d="M 153.472656 275.167969 C 146.035156 273.515625 138.675781 272.847656 131.402344 273.148438 C 138.226562 275.683594 145.433594 277.320312 153.015625 278.046875 C 155.199219 277.835938 157.433594 277.699219 159.722656 277.632812 C 157.566406 276.863281 155.484375 276.042969 153.472656 275.167969 " fill-opacity="1" fill-rule="nonzero"/><path fill="#8b0204" d="M 155.777344 289.679688 C 157.410156 288.238281 159.132812 286.816406 160.933594 285.425781 C 158.738281 286.070312 156.574219 286.625 154.433594 287.09375 C 147.457031 290.128906 141.121094 293.910156 135.417969 298.421875 C 142.429688 296.457031 149.21875 293.550781 155.777344 289.679688 " fill-opacity="1" fill-rule="nonzero"/><path fill="#8b0204" d="M 136.761719 311.824219 C 139.324219 307.320312 142.324219 303.003906 145.695312 298.964844 C 140.8125 300.929688 135.777344 302.445312 130.683594 303.492188 C 125.753906 308.132812 121.332031 313.484375 117.535156 319.421875 C 124.363281 317.636719 130.824219 315.085938 136.761719 311.824219 " fill-opacity="1" fill-rule="nonzero"/><path fill="#8b0204" d="M 78.949219 264.835938 C 81.359375 266.707031 83.796875 268.453125 86.210938 270.03125 C 90.277344 272.703125 94.476562 275.070312 98.695312 277.074219 C 104.898438 274.332031 111.300781 272.289062 117.75 270.992188 C 112.03125 267.761719 106.574219 263.839844 101.503906 259.308594 C 96.894531 259.898438 92.171875 260.855469 87.457031 262.136719 C 84.660156 262.902344 81.804688 263.808594 78.949219 264.835938 " fill-opacity="1" fill-rule="nonzero"/><path fill="#ce2922" d="M 88.082031 322.539062 C 89.292969 322.578125 90.523438 322.597656 91.765625 322.597656 C 93.488281 322.597656 95.238281 322.558594 97.015625 322.472656 C 101.886719 322.242188 106.675781 321.6875 111.25 320.828125 C 114.664062 314.964844 118.640625 309.550781 123.089844 304.707031 C 119.667969 305.101562 116.1875 305.300781 112.734375 305.300781 C 109.617188 305.300781 106.378906 305.128906 103.097656 304.796875 C 99.707031 307.992188 96.441406 311.546875 93.386719 315.355469 C 91.5625 317.625 89.78125 320.035156 88.082031 322.539062 " fill-opacity="1" fill-rule="nonzero"/><path fill="#ce2922" d="M 78.949219 294.410156 C 81.824219 295.445312 84.679688 296.351562 87.457031 297.113281 C 92.171875 298.394531 96.894531 299.347656 101.507812 299.945312 C 106.566406 295.421875 112.023438 291.507812 117.753906 288.269531 C 111.34375 286.972656 104.945312 284.929688 98.699219 282.171875 C 94.464844 284.179688 90.230469 286.570312 86.117188 289.277344 C 83.746094 290.835938 81.335938 292.558594 78.949219 294.410156 " fill-opacity="1" fill-rule="nonzero"/><path fill="#8b0204" d="M 105.464844 346.464844 C 108.390625 345.613281 111.234375 344.671875 113.941406 343.644531 C 118.503906 341.914062 122.890625 339.910156 126.972656 337.679688 C 128.40625 331.050781 130.519531 324.667969 133.257812 318.675781 C 127.265625 321.417969 120.882812 323.523438 114.253906 324.960938 C 112.023438 329.042969 110.019531 333.421875 108.289062 337.992188 C 107.261719 340.707031 106.316406 343.550781 105.464844 346.464844 " fill-opacity="1" fill-rule="nonzero"/><path fill="#8b0204" d="M 159.695312 294.296875 C 160.796875 292.417969 161.996094 290.542969 163.28125 288.660156 C 161.386719 289.957031 159.492188 291.160156 157.597656 292.269531 C 151.910156 297.308594 147.058594 302.859375 143.03125 308.902344 C 149.09375 304.867188 154.652344 300 159.695312 294.296875 " fill-opacity="1" fill-rule="nonzero"/><path fill="#8b0204" d="M 91.746094 236.648438 C 90.507812 236.648438 89.285156 236.667969 88.082031 236.710938 C 89.789062 239.21875 91.566406 241.628906 93.386719 243.898438 C 96.445312 247.707031 99.703125 251.257812 103.082031 254.445312 C 106.289062 254.121094 109.523438 253.957031 112.691406 253.957031 C 116.179688 253.957031 119.671875 254.15625 123.101562 254.554688 C 118.644531 249.703125 114.664062 244.285156 111.25 238.421875 C 106.640625 237.554688 101.816406 237 96.90625 236.773438 C 95.160156 236.6875 93.441406 236.648438 91.746094 236.648438 " fill-opacity="1" fill-rule="nonzero"/><path fill="#8b0204" d="M 159.691406 264.949219 C 154.648438 259.246094 149.089844 254.378906 143.027344 250.34375 C 147.066406 256.40625 151.929688 261.964844 157.636719 267.011719 C 159.523438 268.121094 161.410156 269.324219 163.296875 270.617188 C 162.003906 268.726562 160.800781 266.835938 159.691406 264.949219 " fill-opacity="1" fill-rule="nonzero"/><path fill="#ce2922" d="M 113.941406 215.605469 C 111.222656 214.574219 108.375 213.628906 105.464844 212.78125 C 106.3125 215.695312 107.257812 218.535156 108.292969 221.257812 C 110.015625 225.820312 112.019531 230.203125 114.253906 234.289062 C 120.882812 235.722656 127.265625 237.835938 133.257812 240.578125 C 130.519531 234.582031 128.410156 228.203125 126.972656 221.570312 C 122.898438 219.34375 118.515625 217.339844 113.941406 215.605469 " fill-opacity="1" fill-rule="nonzero"/><g fill="#000000" fill-opacity="1"><g transform="translate(316.874268, 335.334377)"><g><path d="M 87.984375 4.1875 C 76.671875 4.1875 66.160156 2.164062 56.453125 -1.875 C 46.742188 -5.925781 38.328125 -11.441406 31.203125 -18.421875 C 24.085938 -25.410156 18.503906 -33.617188 14.453125 -43.046875 C 10.398438 -52.472656 8.375 -62.5625 8.375 -73.3125 C 8.375 -84.0625 10.398438 -94.148438 14.453125 -103.578125 C 18.503906 -113.003906 24.085938 -121.207031 31.203125 -128.1875 C 38.328125 -135.175781 46.742188 -140.691406 56.453125 -144.734375 C 66.160156 -148.785156 76.671875 -150.8125 87.984375 -150.8125 C 98.171875 -150.8125 107.066406 -149.207031 114.671875 -146 C 122.285156 -142.789062 128.609375 -139.300781 133.640625 -135.53125 C 139.503906 -131.0625 144.53125 -126.03125 148.71875 -120.4375 L 139.296875 -111.015625 C 135.660156 -115.203125 131.472656 -119.046875 126.734375 -122.546875 C 122.679688 -125.335938 117.753906 -127.953125 111.953125 -130.390625 C 106.160156 -132.835938 99.566406 -134.0625 92.171875 -134.0625 C 85.046875 -134.0625 78.335938 -132.628906 72.046875 -129.765625 C 65.765625 -126.898438 60.210938 -122.8125 55.390625 -117.5 C 50.578125 -112.195312 46.773438 -105.8125 43.984375 -98.34375 C 41.191406 -90.875 39.796875 -82.53125 39.796875 -73.3125 C 39.796875 -64.09375 41.191406 -55.75 43.984375 -48.28125 C 46.773438 -40.8125 50.578125 -34.421875 55.390625 -29.109375 C 60.210938 -23.804688 65.765625 -19.722656 72.046875 -16.859375 C 78.335938 -13.992188 85.046875 -12.5625 92.171875 -12.5625 C 100.265625 -12.5625 107.347656 -13.851562 113.421875 -16.4375 C 119.503906 -19.019531 124.640625 -21.921875 128.828125 -25.140625 C 133.566406 -28.765625 137.753906 -32.953125 141.390625 -37.703125 L 151.859375 -28.28125 C 147.671875 -22.132812 142.503906 -16.6875 136.359375 -11.9375 C 131.054688 -7.882812 124.425781 -4.179688 116.46875 -0.828125 C 108.507812 2.515625 99.015625 4.1875 87.984375 4.1875 Z M 87.984375 4.1875 "/></g></g></g><g fill="#000000" fill-opacity="1"><g transform="translate(471.881514, 335.334377)"><g><path d="M 48.171875 3.140625 C 41.328125 3.140625 35.253906 2.234375 29.953125 0.421875 C 24.648438 -1.390625 20.144531 -3.867188 16.4375 -7.015625 C 12.738281 -10.160156 9.945312 -13.828125 8.0625 -18.015625 C 6.175781 -22.203125 5.234375 -26.671875 5.234375 -31.421875 C 5.234375 -36.585938 6.175781 -41.4375 8.0625 -45.96875 C 9.945312 -50.507812 12.738281 -54.382812 16.4375 -57.59375 C 20.144531 -60.8125 24.648438 -63.363281 29.953125 -65.25 C 35.253906 -67.132812 41.328125 -68.078125 48.171875 -68.078125 C 52.921875 -68.078125 57.320312 -67.65625 61.375 -66.8125 C 65.425781 -65.976562 68.988281 -65.003906 72.0625 -63.890625 C 75.6875 -62.628906 78.894531 -61.234375 81.6875 -59.703125 L 81.6875 -64.9375 C 81.6875 -74.425781 79.242188 -81.6875 74.359375 -86.71875 C 69.472656 -91.75 62.84375 -94.265625 54.46875 -94.265625 C 49.71875 -94.265625 45.488281 -93.492188 41.78125 -91.953125 C 38.082031 -90.421875 34.910156 -88.742188 32.265625 -86.921875 C 29.191406 -84.691406 26.46875 -82.25 24.09375 -79.59375 L 15.703125 -86.921875 C 18.503906 -90.835938 22 -94.332031 26.1875 -97.40625 C 29.8125 -100.0625 34.273438 -102.46875 39.578125 -104.625 C 44.890625 -106.789062 51.25 -107.875 58.65625 -107.875 C 66.46875 -107.875 73.484375 -106.753906 79.703125 -104.515625 C 85.921875 -102.285156 91.191406 -99.25 95.515625 -95.40625 C 99.847656 -91.570312 103.164062 -87.035156 105.46875 -81.796875 C 107.769531 -76.554688 108.921875 -70.9375 108.921875 -64.9375 L 108.921875 -27.234375 C 108.921875 -22.484375 109.0625 -18.394531 109.34375 -14.96875 C 109.625 -11.550781 109.972656 -8.726562 110.390625 -6.5 C 110.953125 -3.976562 111.507812 -1.8125 112.0625 0 L 84.828125 0 C 84.410156 -1.53125 84.0625 -3.066406 83.78125 -4.609375 C 83.507812 -5.867188 83.265625 -7.226562 83.046875 -8.6875 C 82.835938 -10.15625 82.734375 -11.445312 82.734375 -12.5625 L 81.6875 -12.5625 C 79.457031 -9.632812 76.738281 -6.984375 73.53125 -4.609375 C 70.726562 -2.648438 67.265625 -0.867188 63.140625 0.734375 C 59.023438 2.335938 54.035156 3.140625 48.171875 3.140625 Z M 54.46875 -10.46875 C 58.65625 -10.46875 62.421875 -11.335938 65.765625 -13.078125 C 69.117188 -14.828125 71.984375 -16.753906 74.359375 -18.859375 C 77.015625 -21.367188 79.457031 -24.160156 81.6875 -27.234375 L 81.6875 -47.125 C 79.457031 -48.382812 77.015625 -49.570312 74.359375 -50.6875 C 71.984375 -51.664062 69.117188 -52.539062 65.765625 -53.3125 C 62.421875 -54.082031 58.65625 -54.46875 54.46875 -54.46875 C 48.601562 -54.46875 43.644531 -52.335938 39.59375 -48.078125 C 35.539062 -43.816406 33.515625 -38.265625 33.515625 -31.421875 C 33.515625 -25.554688 35.539062 -20.597656 39.59375 -16.546875 C 43.644531 -12.492188 48.601562 -10.46875 54.46875 -10.46875 Z M 54.46875 -10.46875 "/></g></g></g><g fill="#000000" fill-opacity="1"><g transform="translate(594.421044, 335.334377)"><g><path d="M 48.171875 3.140625 C 40.210938 3.140625 33.367188 1.847656 27.640625 -0.734375 C 21.921875 -3.316406 17.175781 -6.210938 13.40625 -9.421875 C 8.9375 -13.054688 5.164062 -17.25 2.09375 -22 L 10.46875 -29.328125 C 12.84375 -25.691406 15.773438 -22.550781 19.265625 -19.90625 C 22.054688 -17.53125 25.546875 -15.363281 29.734375 -13.40625 C 33.929688 -11.445312 38.679688 -10.46875 43.984375 -10.46875 C 51.941406 -10.46875 57.945312 -12.28125 62 -15.90625 C 66.050781 -19.539062 68.078125 -24.015625 68.078125 -29.328125 C 68.078125 -32.117188 66.609375 -34.421875 63.671875 -36.234375 C 60.742188 -38.054688 57.046875 -39.769531 52.578125 -41.375 C 48.109375 -42.976562 43.320312 -44.648438 38.21875 -46.390625 C 33.125 -48.140625 28.34375 -50.304688 23.875 -52.890625 C 19.40625 -55.472656 15.703125 -58.71875 12.765625 -62.625 C 9.835938 -66.539062 8.375 -71.5 8.375 -77.5 C 8.375 -81.414062 9.28125 -85.1875 11.09375 -88.8125 C 12.914062 -92.445312 15.710938 -95.691406 19.484375 -98.546875 C 23.253906 -101.410156 27.96875 -103.679688 33.625 -105.359375 C 39.28125 -107.035156 45.878906 -107.875 53.421875 -107.875 C 60.253906 -107.875 66.1875 -106.894531 71.21875 -104.9375 C 76.25 -102.988281 80.507812 -100.828125 84 -98.453125 C 87.90625 -95.660156 91.328125 -92.519531 94.265625 -89.03125 L 85.875 -81.6875 C 83.507812 -84.0625 80.859375 -86.160156 77.921875 -87.984375 C 75.410156 -89.515625 72.441406 -90.941406 69.015625 -92.265625 C 65.597656 -93.597656 61.796875 -94.265625 57.609375 -94.265625 C 50.765625 -94.265625 45.5625 -92.65625 42 -89.4375 C 38.4375 -86.226562 36.65625 -82.25 36.65625 -77.5 C 36.65625 -74.707031 38.117188 -72.40625 41.046875 -70.59375 C 43.984375 -68.78125 47.6875 -67.066406 52.15625 -65.453125 C 56.625 -63.847656 61.40625 -62.171875 66.5 -60.421875 C 71.601562 -58.679688 76.390625 -56.519531 80.859375 -53.9375 C 85.328125 -51.351562 89.023438 -48.070312 91.953125 -44.09375 C 94.890625 -40.113281 96.359375 -35.191406 96.359375 -29.328125 C 96.359375 -25.140625 95.378906 -21.085938 93.421875 -17.171875 C 91.460938 -13.265625 88.492188 -9.804688 84.515625 -6.796875 C 80.535156 -3.796875 75.507812 -1.390625 69.4375 0.421875 C 63.363281 2.234375 56.273438 3.140625 48.171875 3.140625 Z M 48.171875 3.140625 "/></g></g></g><g fill="#000000" fill-opacity="1"><g transform="translate(697.060937, 335.334377)"><g><path d="M 14.65625 -150.8125 L 41.890625 -150.8125 L 41.890625 -93.21875 L 42.9375 -93.21875 C 45.3125 -95.863281 48.101562 -98.304688 51.3125 -100.546875 C 54.113281 -102.359375 57.503906 -104.03125 61.484375 -105.5625 C 65.460938 -107.101562 70.101562 -107.875 75.40625 -107.875 C 82.25 -107.875 88.394531 -106.894531 93.84375 -104.9375 C 99.289062 -102.988281 103.898438 -100.265625 107.671875 -96.765625 C 111.441406 -93.273438 114.335938 -89.15625 116.359375 -84.40625 C 118.378906 -79.664062 119.390625 -74.570312 119.390625 -69.125 L 119.390625 0 L 92.171875 0 L 92.171875 -69.125 C 92.171875 -77.082031 90.039062 -83.257812 85.78125 -87.65625 C 81.519531 -92.0625 75.96875 -94.265625 69.125 -94.265625 C 64.9375 -94.265625 61.164062 -93.390625 57.8125 -91.640625 C 54.457031 -89.898438 51.59375 -87.976562 49.21875 -85.875 C 46.425781 -83.363281 43.984375 -80.570312 41.890625 -77.5 L 41.890625 0 L 14.65625 0 Z M 14.65625 -150.8125 "/></g></g></g><g fill="#000000" fill-opacity="1"><g transform="translate(830.084019, 335.334377)"><g><path d="M 64.9375 4.1875 C 54.882812 4.1875 46.117188 2.515625 38.640625 -0.828125 C 31.171875 -4.179688 24.992188 -7.882812 20.109375 -11.9375 C 14.242188 -16.6875 9.285156 -22.132812 5.234375 -28.28125 L 11.515625 -33.515625 C 15.148438 -28.210938 19.617188 -23.460938 24.921875 -19.265625 C 29.390625 -15.640625 34.941406 -12.394531 41.578125 -9.53125 C 48.210938 -6.664062 56 -5.234375 64.9375 -5.234375 C 70.664062 -5.234375 75.867188 -6.101562 80.546875 -7.84375 C 85.222656 -9.59375 89.203125 -11.96875 92.484375 -14.96875 C 95.765625 -17.976562 98.273438 -21.503906 100.015625 -25.546875 C 101.765625 -29.597656 102.640625 -34 102.640625 -38.75 C 102.640625 -44.195312 100.472656 -48.664062 96.140625 -52.15625 C 91.816406 -55.644531 86.375 -58.820312 79.8125 -61.6875 C 73.25 -64.550781 66.195312 -67.304688 58.65625 -69.953125 C 51.113281 -72.609375 44.0625 -75.75 37.5 -79.375 C 30.9375 -83.007812 25.488281 -87.410156 21.15625 -92.578125 C 16.820312 -97.742188 14.65625 -104.238281 14.65625 -112.0625 C 14.65625 -117.09375 15.804688 -121.910156 18.109375 -126.515625 C 20.421875 -131.128906 23.773438 -135.25 28.171875 -138.875 C 32.566406 -142.507812 37.941406 -145.40625 44.296875 -147.5625 C 50.648438 -149.726562 57.878906 -150.8125 65.984375 -150.8125 C 74.078125 -150.8125 81.367188 -149.378906 87.859375 -146.515625 C 94.359375 -143.660156 99.84375 -140.554688 104.3125 -137.203125 C 109.625 -133.148438 114.300781 -128.613281 118.34375 -123.59375 L 112.0625 -118.34375 C 108.289062 -122.539062 104.03125 -126.382812 99.28125 -129.875 C 95.238281 -132.664062 90.390625 -135.28125 84.734375 -137.71875 C 79.078125 -140.164062 72.828125 -141.390625 65.984375 -141.390625 C 60.953125 -141.390625 56.375 -140.585938 52.25 -138.984375 C 48.132812 -137.378906 44.609375 -135.25 41.671875 -132.59375 C 38.742188 -129.9375 36.476562 -126.828125 34.875 -123.265625 C 33.269531 -119.710938 32.46875 -115.976562 32.46875 -112.0625 C 32.46875 -106.613281 34.628906 -102.144531 38.953125 -98.65625 C 43.285156 -95.164062 48.734375 -91.988281 55.296875 -89.125 C 61.859375 -86.257812 68.910156 -83.5 76.453125 -80.84375 C 83.992188 -78.195312 91.046875 -75.054688 97.609375 -71.421875 C 104.171875 -67.796875 109.613281 -63.398438 113.9375 -58.234375 C 118.269531 -53.066406 120.4375 -46.570312 120.4375 -38.75 C 120.4375 -33.300781 119.179688 -27.992188 116.671875 -22.828125 C 114.160156 -17.660156 110.492188 -13.085938 105.671875 -9.109375 C 100.859375 -5.128906 95.03125 -1.921875 88.1875 0.515625 C 81.34375 2.960938 73.59375 4.1875 64.9375 4.1875 Z M 64.9375 4.1875 "/></g></g></g><g fill="#000000" fill-opacity="1"><g transform="translate(959.954937, 335.334377)"><g><path d="M 63.890625 3.140625 C 56.066406 3.140625 48.769531 1.707031 42 -1.15625 C 35.226562 -4.019531 29.363281 -7.925781 24.40625 -12.875 C 19.445312 -17.832031 15.535156 -23.695312 12.671875 -30.46875 C 9.804688 -37.25 8.375 -44.550781 8.375 -52.375 C 8.375 -60.1875 9.804688 -67.476562 12.671875 -74.25 C 15.535156 -81.03125 19.445312 -86.894531 24.40625 -91.84375 C 29.363281 -96.800781 35.226562 -100.710938 42 -103.578125 C 48.769531 -106.441406 56.066406 -107.875 63.890625 -107.875 C 71.710938 -107.875 79.007812 -106.441406 85.78125 -103.578125 C 92.550781 -100.710938 98.414062 -96.800781 103.375 -91.84375 C 108.332031 -86.894531 112.238281 -81.03125 115.09375 -74.25 C 117.957031 -67.476562 119.390625 -60.1875 119.390625 -52.375 C 119.390625 -44.550781 117.957031 -37.25 115.09375 -30.46875 C 112.238281 -23.695312 108.332031 -17.832031 103.375 -12.875 C 98.414062 -7.925781 92.550781 -4.019531 85.78125 -1.15625 C 79.007812 1.707031 71.710938 3.140625 63.890625 3.140625 Z M 63.890625 -5.234375 C 69.054688 -5.234375 74.007812 -6.316406 78.75 -8.484375 C 83.5 -10.648438 87.617188 -13.753906 91.109375 -17.796875 C 94.609375 -21.847656 97.40625 -26.769531 99.5 -32.5625 C 101.59375 -38.363281 102.640625 -44.96875 102.640625 -52.375 C 102.640625 -59.632812 101.59375 -66.195312 99.5 -72.0625 C 97.40625 -77.925781 94.609375 -82.878906 91.109375 -86.921875 C 87.617188 -90.972656 83.5 -94.082031 78.75 -96.25 C 74.007812 -98.414062 69.054688 -99.5 63.890625 -99.5 C 58.578125 -99.5 53.582031 -98.414062 48.90625 -96.25 C 44.226562 -94.082031 40.144531 -90.972656 36.65625 -86.921875 C 33.164062 -82.878906 30.375 -77.925781 28.28125 -72.0625 C 26.1875 -66.195312 25.140625 -59.632812 25.140625 -52.375 C 25.140625 -44.96875 26.1875 -38.363281 28.28125 -32.5625 C 30.375 -26.769531 33.164062 -21.847656 36.65625 -17.796875 C 40.144531 -13.753906 44.226562 -10.648438 48.90625 -8.484375 C 53.582031 -6.316406 58.578125 -5.234375 63.890625 -5.234375 Z M 63.890625 -5.234375 "/></g></g></g><g fill="#000000" fill-opacity="1"><g transform="translate(1087.731167, 335.334377)"><g><path d="M 61.796875 3.140625 C 54.390625 3.140625 47.859375 2.125 42.203125 0.09375 C 36.546875 -1.925781 31.726562 -4.710938 27.75 -8.265625 C 23.769531 -11.828125 20.765625 -16.125 18.734375 -21.15625 C 16.710938 -26.1875 15.703125 -31.703125 15.703125 -37.703125 L 15.703125 -104.734375 L 31.421875 -104.734375 L 31.421875 -37.703125 C 31.421875 -32.953125 32.222656 -28.585938 33.828125 -24.609375 C 35.429688 -20.628906 37.59375 -17.207031 40.3125 -14.34375 C 43.039062 -11.476562 46.253906 -9.242188 49.953125 -7.640625 C 53.660156 -6.035156 57.609375 -5.234375 61.796875 -5.234375 C 67.242188 -5.234375 72.164062 -6.316406 76.5625 -8.484375 C 80.957031 -10.648438 84.691406 -13.054688 87.765625 -15.703125 C 91.398438 -18.773438 94.613281 -22.269531 97.40625 -26.1875 L 97.40625 -104.734375 L 113.109375 -104.734375 L 113.109375 -26.1875 C 113.109375 -21.71875 113.25 -17.875 113.53125 -14.65625 C 113.8125 -11.445312 114.160156 -8.726562 114.578125 -6.5 C 115.140625 -3.976562 115.695312 -1.8125 116.25 0 L 100.546875 0 C 100.128906 -1.675781 99.78125 -3.351562 99.5 -5.03125 C 98.800781 -8.238281 98.453125 -11.796875 98.453125 -15.703125 L 97.40625 -15.703125 C 94.613281 -12.078125 91.398438 -8.9375 87.765625 -6.28125 C 84.691406 -3.90625 80.957031 -1.742188 76.5625 0.203125 C 72.164062 2.160156 67.242188 3.140625 61.796875 3.140625 Z M 61.796875 3.140625 "/></g></g></g><g fill="#000000" fill-opacity="1"><g transform="translate(1217.602063, 335.334377)"><g><path d="M 16.75 -150.8125 L 32.46875 -150.8125 L 32.46875 -58.65625 L 60.75 -58.65625 L 92.171875 -104.734375 L 104.734375 -104.734375 L 72.265625 -56.5625 L 111.015625 0 L 92.171875 0 L 58.65625 -49.21875 L 32.46875 -49.21875 L 32.46875 0 L 16.75 0 Z M 16.75 -150.8125 "/></g></g></g></svg>