<svg xmlns="http://www.w3.org/2000/svg" xmlns:xlink="http://www.w3.org/1999/xlink" width="500" zoomAndPan="magnify" viewBox="0 0 375 374.999991" height="500" preserveAspectRatio="xMidYMid meet" version="1.0"><defs><clipPath id="77adb5e2b5"><path d="M 166 18.027344 L 209 18.027344 L 209 73 L 166 73 Z M 166 18.027344 " clip-rule="nonzero"/></clipPath><clipPath id="d9599899a6"><path d="M 263 306 L 304 306 L 304 357.027344 L 263 357.027344 Z M 263 306 " clip-rule="nonzero"/></clipPath><clipPath id="b3497ce5dd"><path d="M 316 180 L 371.925781 180 L 371.925781 223 L 316 223 Z M 316 180 " clip-rule="nonzero"/></clipPath><clipPath id="7971075df5"><path d="M 70 306 L 112 306 L 112 357.027344 L 70 357.027344 Z M 70 306 " clip-rule="nonzero"/></clipPath></defs><path fill="#88181a" d="M 221.746094 307.449219 C 222.421875 295.894531 221.722656 284.515625 219.644531 273.585938 C 213.898438 267.292969 208.683594 260.417969 204.089844 253.101562 C 204.679688 261.71875 204.5 270.347656 203.554688 278.824219 C 208.285156 288.882812 214.398438 298.5 221.746094 307.449219 " fill-opacity="1" fill-rule="nonzero"/><path fill="#88181a" d="M 203.546875 124.734375 C 204.5 133.207031 204.679688 141.839844 204.089844 150.460938 C 208.675781 143.140625 213.898438 136.265625 219.644531 129.964844 C 221.71875 119.039062 222.429688 107.667969 221.746094 96.109375 C 214.398438 105.070312 208.285156 114.683594 203.546875 124.734375 " fill-opacity="1" fill-rule="nonzero"/><path fill="#88181a" d="M 252.699219 291.667969 C 249.773438 280.460938 245.59375 269.863281 240.25 260.117188 C 232.832031 255.898438 225.75 250.976562 219.125 245.429688 C 222.347656 253.453125 224.835938 261.710938 226.558594 270.066406 C 234.167969 278.167969 242.945312 285.425781 252.699219 291.667969 " fill-opacity="1" fill-rule="nonzero"/><path fill="#88181a" d="M 198.050781 268.898438 C 198.542969 256.960938 197.441406 244.882812 194.738281 232.683594 C 193.300781 229.390625 191.953125 225.972656 190.699219 222.441406 C 190.59375 226.195312 190.367188 229.859375 190.019531 233.433594 C 191.210938 245.871094 193.898438 257.699219 198.050781 268.898438 " fill-opacity="1" fill-rule="nonzero"/><path fill="#88181a" d="M 218.257812 262.320312 C 215.035156 250.820312 210.265625 239.671875 203.917969 228.90625 C 201.539062 226.222656 199.207031 223.386719 196.917969 220.414062 C 197.972656 224.011719 198.890625 227.570312 199.664062 231.078125 C 204.644531 242.539062 210.855469 252.957031 218.257812 262.320312 " fill-opacity="1" fill-rule="nonzero"/><path fill="#cd2a27" d="M 219.125 158.125 C 225.75 152.582031 232.832031 147.65625 240.246094 143.445312 C 245.597656 133.695312 249.773438 123.097656 252.699219 111.890625 C 242.945312 118.132812 234.167969 125.390625 226.558594 133.488281 C 224.835938 141.847656 222.34375 150.109375 219.125 158.125 " fill-opacity="1" fill-rule="nonzero"/><path fill="#88181a" d="M 211.679688 48.5625 C 208.625 52.503906 205.765625 56.503906 203.160156 60.472656 C 198.761719 67.179688 194.878906 74.070312 191.617188 80.964844 C 196.109375 91.152344 199.457031 101.664062 201.597656 112.257812 C 206.90625 102.839844 213.339844 93.878906 220.757812 85.582031 C 219.78125 78.007812 218.21875 70.261719 216.105469 62.53125 C 214.855469 57.953125 213.371094 53.269531 211.679688 48.5625 " fill-opacity="1" fill-rule="nonzero"/><path fill="#88181a" d="M 190.695312 181.117188 C 191.957031 177.578125 193.300781 174.160156 194.742188 170.863281 C 197.449219 158.671875 198.542969 146.59375 198.054688 134.660156 C 193.898438 145.859375 191.214844 157.683594 190.019531 170.128906 C 190.367188 173.703125 190.589844 177.371094 190.695312 181.117188 " fill-opacity="1" fill-rule="nonzero"/><path fill="#88181a" d="M 283.167969 306.847656 C 287.617188 308.535156 292.285156 310.085938 297.0625 311.476562 C 295.679688 306.707031 294.121094 302.035156 292.433594 297.570312 C 289.597656 290.078125 286.304688 282.882812 282.652344 276.1875 C 271.777344 273.835938 261.308594 270.367188 251.476562 265.863281 C 255.96875 275.695312 259.4375 286.175781 261.789062 297.0625 C 268.488281 300.71875 275.671875 304.007812 283.167969 306.847656 " fill-opacity="1" fill-rule="nonzero"/><path fill="#88181a" d="M 119.839844 301.988281 C 118.433594 309.488281 117.523438 317.347656 117.144531 325.351562 C 116.914062 330.121094 116.875 335.039062 117.035156 340.007812 C 121.132812 337.222656 125.089844 334.300781 128.824219 331.308594 C 135.078125 326.285156 140.898438 320.925781 146.128906 315.382812 C 145.003906 304.304688 145.0625 293.269531 146.296875 282.539062 C 138.351562 289.84375 129.460938 296.378906 119.839844 301.988281 " fill-opacity="1" fill-rule="nonzero"/><path fill="#cd2a27" d="M 217.332031 41.59375 C 219.730469 47.835938 221.804688 54.128906 223.492188 60.316406 C 225.140625 66.316406 226.464844 72.433594 227.449219 78.527344 C 231.835938 74.171875 236.496094 70.003906 241.34375 66.117188 C 246.351562 62.109375 251.726562 58.234375 257.332031 54.597656 C 256.640625 45.59375 255.390625 37.449219 254.027344 30.480469 C 247.570312 27.980469 240.964844 25.796875 234.175781 24.023438 C 228.984375 28.859375 223.1875 34.714844 217.332031 41.59375 " fill-opacity="1" fill-rule="nonzero"/><path fill="#cd2a27" d="M 128.824219 72.253906 C 125.089844 69.257812 121.132812 66.335938 117.035156 63.550781 C 116.875 68.527344 116.910156 73.445312 117.144531 78.210938 C 117.523438 86.210938 118.429688 94.074219 119.839844 101.574219 C 129.460938 107.171875 138.347656 113.703125 146.300781 121.023438 C 145.0625 110.285156 145.003906 99.257812 146.128906 88.171875 C 140.886719 82.621094 135.070312 77.273438 128.824219 72.253906 " fill-opacity="1" fill-rule="nonzero"/><path fill="#cd2a27" d="M 319.535156 272.304688 C 321.574219 272.304688 323.589844 272.273438 325.578125 272.207031 C 322.785156 268.089844 319.863281 264.132812 316.878906 260.417969 C 311.867188 254.164062 306.519531 248.335938 300.964844 243.089844 C 295.578125 243.640625 290.257812 243.914062 285.152344 243.914062 C 279.476562 243.914062 273.769531 243.589844 268.15625 242.945312 C 275.449219 250.898438 281.976562 259.777344 287.574219 269.402344 C 295.089844 270.816406 302.941406 271.71875 310.925781 272.101562 C 313.839844 272.242188 316.710938 272.304688 319.535156 272.304688 " fill-opacity="1" fill-rule="nonzero"/><path fill="#cd2a27" d="M 305.726562 89.773438 C 303.996094 96.242188 301.972656 102.550781 299.710938 108.550781 C 297.511719 114.371094 295 120.097656 292.210938 125.609375 C 298.316406 124.65625 304.539062 124.03125 310.742188 123.738281 C 313.800781 123.601562 316.804688 123.527344 319.757812 123.527344 C 323.269531 123.527344 326.863281 123.625 330.445312 123.816406 C 335.246094 116.011719 339.058594 108.585938 342.074219 102.085938 C 338.316406 96.3125 334.285156 90.738281 329.925781 85.4375 C 322.828125 86.292969 314.605469 87.621094 305.726562 89.773438 " fill-opacity="1" fill-rule="nonzero"/><path fill="#cd2a27" d="M 340.554688 226.046875 C 336.605469 222.980469 332.605469 220.113281 328.65625 217.519531 C 321.964844 213.128906 315.070312 209.234375 308.160156 205.960938 C 297.925781 210.476562 287.4375 213.835938 276.917969 215.964844 C 286.328125 221.277344 295.277344 227.714844 303.5625 235.125 C 311.128906 234.152344 318.875 232.582031 326.601562 230.476562 C 331.160156 229.230469 335.839844 227.746094 340.554688 226.046875 " fill-opacity="1" fill-rule="nonzero"/><path fill="#88181a" d="M 365.488281 154.5625 C 363.71875 147.964844 361.574219 141.519531 359.113281 135.234375 C 352.046875 133.835938 343.742188 132.542969 334.527344 131.832031 C 330.886719 137.441406 327.011719 142.820312 323.011719 147.824219 C 319.109375 152.707031 314.949219 157.378906 310.617188 161.734375 C 316.734375 162.726562 322.839844 164.050781 328.808594 165.6875 C 334.984375 167.382812 341.277344 169.457031 347.519531 171.855469 C 354.589844 165.832031 360.582031 159.871094 365.488281 154.5625 " fill-opacity="1" fill-rule="nonzero"/><path fill="#88181a" d="M 340.554688 177.511719 C 335.871094 175.824219 331.183594 174.339844 326.601562 173.082031 C 318.863281 170.976562 311.117188 169.40625 303.5625 168.4375 C 295.242188 175.875 286.296875 182.308594 276.917969 187.609375 C 287.496094 189.75 297.996094 193.101562 308.175781 197.597656 C 315.09375 194.304688 321.980469 190.421875 328.65625 186.035156 C 332.613281 183.445312 336.609375 180.574219 340.554688 177.511719 " fill-opacity="1" fill-rule="nonzero"/><path fill="#88181a" d="M 235.449219 153.734375 C 225.507812 160.347656 216.386719 168.335938 208.113281 177.699219 C 206.292969 180.796875 204.324219 183.894531 202.207031 186.992188 C 205.304688 184.875 208.402344 182.902344 211.492188 181.078125 C 220.847656 172.800781 228.835938 163.671875 235.449219 153.734375 " fill-opacity="1" fill-rule="nonzero"/><path fill="#cd2a27" d="M 297.0625 92.082031 C 292.292969 93.464844 287.628906 95.023438 283.160156 96.714844 C 275.671875 99.550781 268.484375 102.839844 261.789062 106.5 C 259.4375 117.378906 255.96875 127.855469 251.476562 137.6875 C 261.308594 133.191406 271.777344 129.722656 282.652344 127.378906 C 286.308594 120.671875 289.597656 113.480469 292.433594 105.988281 C 294.121094 101.519531 295.679688 96.855469 297.0625 92.082031 " fill-opacity="1" fill-rule="nonzero"/><path fill="#88181a" d="M 199.667969 172.480469 C 198.890625 175.988281 197.976562 179.542969 196.914062 183.144531 C 199.207031 180.171875 201.542969 177.339844 203.921875 174.652344 C 210.265625 163.886719 215.039062 152.734375 218.261719 141.238281 C 210.84375 150.601562 204.644531 161.019531 199.667969 172.480469 " fill-opacity="1" fill-rule="nonzero"/><path fill="#88181a" d="M 153.109375 96.109375 C 152.425781 107.667969 153.132812 119.039062 155.210938 129.96875 C 160.957031 136.265625 166.171875 143.140625 170.765625 150.460938 C 170.175781 141.847656 170.355469 133.21875 171.304688 124.734375 C 166.570312 114.671875 160.453125 105.058594 153.109375 96.109375 " fill-opacity="1" fill-rule="nonzero"/><path fill="#88181a" d="M 214.539062 218.285156 C 225.296875 224.628906 236.4375 229.40625 247.933594 232.628906 C 238.582031 225.222656 228.179688 219.015625 216.742188 214.042969 C 213.238281 213.265625 209.683594 212.359375 206.085938 211.300781 C 209.046875 213.585938 211.863281 215.914062 214.539062 218.285156 " fill-opacity="1" fill-rule="nonzero"/><path fill="#88181a" d="M 246.027344 331.308594 C 249.753906 334.292969 253.707031 337.214844 257.816406 340.003906 C 257.972656 335.039062 257.941406 330.117188 257.710938 325.351562 C 257.328125 317.34375 256.417969 309.488281 255.011719 301.980469 C 245.390625 296.386719 236.511719 289.847656 228.550781 282.535156 C 229.789062 293.28125 229.847656 304.308594 228.722656 315.390625 C 233.949219 320.921875 239.777344 326.28125 246.027344 331.308594 " fill-opacity="1" fill-rule="nonzero"/><path fill="#cd2a27" d="M 255.011719 101.574219 C 256.421875 94.070312 257.328125 86.210938 257.710938 78.207031 C 257.933594 73.445312 257.972656 68.523438 257.816406 63.550781 C 253.707031 66.34375 249.753906 69.265625 246.027344 72.253906 C 239.78125 77.273438 233.964844 82.625 228.722656 88.167969 C 229.847656 99.25 229.789062 110.277344 228.550781 121.023438 C 236.503906 113.710938 245.394531 107.175781 255.011719 101.574219 " fill-opacity="1" fill-rule="nonzero"/><g clip-path="url(#77adb5e2b5)"><path fill="#88181a" d="M 178.042969 56.089844 C 181.449219 61.28125 184.605469 66.683594 187.425781 72.191406 C 190.257812 66.667969 193.410156 61.261719 196.8125 56.089844 C 200.328125 50.726562 204.246094 45.378906 208.453125 40.1875 C 205.019531 31.859375 201.335938 24.53125 197.898438 18.339844 C 194.4375 18.144531 190.941406 18.027344 187.425781 18.027344 C 183.910156 18.027344 180.421875 18.144531 176.953125 18.339844 C 173.519531 24.53125 169.828125 31.863281 166.402344 40.1875 C 170.605469 45.375 174.519531 50.722656 178.042969 56.089844 " fill-opacity="1" fill-rule="nonzero"/></g><path fill="#cd2a27" d="M 41.8125 211.164062 C 47 207.757812 52.402344 204.609375 57.910156 201.777344 C 52.390625 198.941406 46.984375 195.789062 41.8125 192.390625 C 36.445312 188.855469 31.097656 184.9375 25.917969 180.738281 C 17.28125 184.300781 9.699219 188.148438 3.371094 191.695312 C 3.164062 195.277344 3.03125 198.882812 3.03125 202.523438 C 3.03125 205.636719 3.113281 208.730469 3.261719 211.804688 C 9.613281 215.367188 17.230469 219.234375 25.917969 222.816406 C 31.128906 218.601562 36.472656 214.6875 41.8125 211.164062 " fill-opacity="1" fill-rule="nonzero"/><path fill="#88181a" d="M 218.308594 194.46875 C 215.019531 195.898438 211.609375 197.25 208.078125 198.507812 C 211.835938 198.609375 215.515625 198.835938 219.097656 199.1875 C 231.523438 197.992188 243.332031 195.308594 254.515625 191.152344 C 242.585938 190.664062 230.511719 191.757812 218.308594 194.46875 " fill-opacity="1" fill-rule="nonzero"/><path fill="#88181a" d="M 254.523438 212.414062 C 243.355469 208.261719 231.554688 205.578125 219.152344 204.382812 C 215.5625 204.734375 211.878906 204.957031 208.109375 205.0625 C 211.628906 206.324219 215.039062 207.664062 218.320312 209.09375 C 230.511719 211.804688 242.585938 212.902344 254.523438 212.414062 " fill-opacity="1" fill-rule="nonzero"/><path fill="#88181a" d="M 265.667969 193.316406 C 257.914062 196.839844 249.765625 199.675781 241.375 201.777344 C 249.75 203.886719 257.894531 206.730469 265.652344 210.25 C 276.683594 208.839844 287.707031 205.996094 298.472656 201.777344 C 287.703125 197.570312 276.683594 194.722656 265.667969 193.316406 " fill-opacity="1" fill-rule="nonzero"/><path fill="#88181a" d="M 284.496094 167.191406 C 275.929688 167.191406 267.417969 167.988281 259.199219 169.550781 C 252.894531 175.304688 246.019531 180.523438 238.714844 185.105469 C 242.023438 184.878906 245.332031 184.765625 248.597656 184.765625 C 253.882812 184.765625 259.207031 185.0625 264.4375 185.644531 C 274.492188 180.90625 284.105469 174.792969 293.042969 167.445312 C 290.171875 167.28125 287.3125 167.191406 284.496094 167.191406 " fill-opacity="1" fill-rule="nonzero"/><path fill="#cd2a27" d="M 293.042969 236.113281 C 284.09375 228.765625 274.480469 222.640625 264.414062 217.898438 C 258.925781 218.515625 253.738281 218.816406 248.570312 218.816406 C 245.328125 218.816406 242.046875 218.703125 238.75 218.476562 C 246.042969 223.058594 252.902344 228.277344 259.199219 234.015625 C 267.417969 235.578125 275.925781 236.371094 284.496094 236.371094 C 287.3125 236.371094 290.179688 236.289062 293.042969 236.113281 " fill-opacity="1" fill-rule="nonzero"/><path fill="#88181a" d="M 316.882812 143.144531 C 319.859375 139.425781 322.773438 135.472656 325.578125 131.347656 C 323.589844 131.289062 321.574219 131.25 319.535156 131.25 C 316.714844 131.25 313.84375 131.3125 310.925781 131.457031 C 302.929688 131.839844 295.074219 132.75 287.574219 134.15625 C 281.976562 143.785156 275.449219 152.671875 268.140625 160.636719 C 273.765625 159.984375 279.492188 159.65625 285.214844 159.65625 C 290.417969 159.65625 295.710938 159.921875 300.972656 160.457031 C 306.519531 155.21875 311.867188 149.402344 316.882812 143.144531 " fill-opacity="1" fill-rule="nonzero"/><path fill="#88181a" d="M 235.449219 249.828125 C 228.84375 239.910156 220.886719 230.796875 211.554688 222.539062 C 208.449219 220.710938 205.339844 218.734375 202.234375 216.609375 C 204.34375 219.691406 206.300781 222.773438 208.113281 225.855469 C 216.386719 235.21875 225.511719 243.207031 235.449219 249.828125 " fill-opacity="1" fill-rule="nonzero"/><path fill="#88181a" d="M 277.265625 136.46875 C 266.070312 139.398438 255.472656 143.582031 245.730469 148.929688 C 241.515625 156.355469 236.59375 163.441406 231.0625 170.066406 C 239.066406 166.84375 247.328125 164.347656 255.679688 162.625 C 263.773438 155.011719 271.023438 146.222656 277.265625 136.46875 " fill-opacity="1" fill-rule="nonzero"/><path fill="#88181a" d="M 214.539062 185.277344 C 211.851562 187.660156 209.023438 189.992188 206.050781 192.28125 C 209.648438 191.230469 213.203125 190.3125 216.703125 189.535156 C 228.160156 184.554688 238.570312 178.347656 247.933594 170.933594 C 236.4375 174.15625 225.296875 178.929688 214.539062 185.277344 " fill-opacity="1" fill-rule="nonzero"/><path fill="#88181a" d="M 277.265625 267.089844 C 271.03125 257.34375 263.789062 248.566406 255.695312 240.945312 C 247.339844 239.230469 239.082031 236.742188 231.078125 233.523438 C 236.609375 240.148438 241.527344 247.226562 245.734375 254.628906 C 255.476562 259.980469 266.0625 264.167969 277.265625 267.089844 " fill-opacity="1" fill-rule="nonzero"/><path fill="#88181a" d="M 265.34375 58.679688 C 265.695312 65.347656 265.71875 71.96875 265.425781 78.394531 C 265.132812 84.59375 264.5 90.820312 263.554688 96.9375 C 269.070312 94.152344 274.789062 91.628906 280.605469 89.429688 C 286.597656 87.167969 292.914062 85.140625 299.371094 83.410156 C 301.503906 74.582031 302.832031 66.417969 303.683594 59.34375 C 298.316406 54.96875 292.675781 50.917969 286.828125 47.167969 C 280.382812 50.164062 273.050781 53.941406 265.34375 58.679688 " fill-opacity="1" fill-rule="nonzero"/><path fill="#88181a" d="M 75.480469 83.414062 C 81.941406 85.144531 88.246094 87.164062 94.246094 89.433594 C 100.046875 91.621094 105.773438 94.144531 111.300781 96.941406 C 110.34375 90.8125 109.722656 84.589844 109.433594 78.394531 C 109.132812 71.988281 109.15625 65.355469 109.511719 58.683594 C 101.800781 53.945312 94.476562 50.160156 88.027344 47.164062 C 82.179688 50.921875 76.539062 54.972656 71.167969 59.347656 C 72.023438 66.417969 73.347656 74.589844 75.480469 83.414062 " fill-opacity="1" fill-rule="nonzero"/><path fill="#cd2a27" d="M 117.519531 54.597656 C 123.128906 58.242188 128.503906 62.113281 133.5 66.121094 C 138.351562 70.007812 143.019531 74.171875 147.402344 78.53125 C 148.390625 72.417969 149.714844 66.304688 151.355469 60.316406 C 153.046875 54.128906 155.121094 47.835938 157.515625 41.589844 C 151.65625 34.703125 145.871094 28.855469 140.679688 24.023438 C 133.898438 25.796875 127.28125 27.980469 120.824219 30.484375 C 119.460938 37.453125 118.210938 45.589844 117.519531 54.597656 " fill-opacity="1" fill-rule="nonzero"/><path fill="#cd2a27" d="M 32.785156 102.085938 C 35.792969 108.585938 39.605469 116.011719 44.402344 123.824219 C 48.023438 123.628906 51.632812 123.53125 55.15625 123.53125 C 58.082031 123.53125 61.074219 123.597656 64.105469 123.742188 C 70.308594 124.027344 76.535156 124.660156 82.644531 125.605469 C 79.847656 120.089844 77.328125 114.363281 75.140625 108.546875 C 72.867188 102.527344 70.847656 96.21875 69.125 89.773438 C 60.242188 87.628906 52.023438 86.292969 44.929688 85.4375 C 40.570312 90.742188 36.535156 96.3125 32.785156 102.085938 " fill-opacity="1" fill-rule="nonzero"/><path fill="#88181a" d="M 27.332031 171.855469 C 33.582031 169.457031 39.871094 167.378906 46.042969 165.6875 C 52.023438 164.050781 58.128906 162.722656 64.230469 161.734375 C 59.914062 157.382812 55.753906 152.71875 51.839844 147.832031 C 47.832031 142.8125 43.957031 137.4375 40.320312 131.832031 C 31.113281 132.539062 22.808594 133.828125 15.742188 135.226562 C 13.277344 141.515625 11.132812 147.960938 9.359375 154.5625 C 14.273438 159.867188 20.261719 165.835938 27.332031 171.855469 " fill-opacity="1" fill-rule="nonzero"/><path fill="#88181a" d="M 171.597656 60.328125 C 169.027344 56.414062 166.195312 52.472656 163.175781 48.566406 C 161.484375 53.265625 159.996094 57.957031 158.75 62.53125 C 156.636719 70.257812 155.074219 78.011719 154.09375 85.585938 C 161.511719 93.886719 167.945312 102.835938 173.257812 112.261719 C 175.394531 101.664062 178.742188 91.15625 183.238281 80.96875 C 179.949219 74.015625 176.03125 67.070312 171.597656 60.328125 " fill-opacity="1" fill-rule="nonzero"/><path fill="#88181a" d="M 40.328125 271.730469 C 43.972656 266.105469 47.851562 260.722656 51.839844 255.738281 C 55.726562 250.875 59.890625 246.210938 64.238281 241.835938 C 58.179688 240.851562 52.070312 239.519531 46.042969 237.867188 C 39.859375 236.179688 33.570312 234.105469 27.324219 231.703125 C 20.097656 237.855469 13.996094 243.953125 9.035156 249.335938 C 10.71875 255.773438 12.765625 262.066406 15.101562 268.203125 C 22.300781 269.648438 30.847656 270.996094 40.328125 271.730469 " fill-opacity="1" fill-rule="nonzero"/><path fill="#88181a" d="M 184.832031 233.433594 C 184.488281 229.855469 184.261719 226.191406 184.152344 222.441406 C 182.894531 225.980469 181.546875 229.398438 180.109375 232.695312 C 177.40625 244.894531 176.308594 256.972656 176.800781 268.902344 C 180.953125 257.703125 183.636719 245.875 184.832031 233.433594 " fill-opacity="1" fill-rule="nonzero"/><path fill="#88181a" d="M 177.9375 220.417969 C 175.648438 223.386719 173.308594 226.21875 170.929688 228.90625 C 164.59375 239.675781 159.8125 250.820312 156.589844 262.320312 C 164.003906 252.957031 170.214844 242.542969 175.191406 231.078125 C 175.960938 227.570312 176.878906 224.015625 177.9375 220.417969 " fill-opacity="1" fill-rule="nonzero"/><path fill="#88181a" d="M 156.59375 141.234375 C 159.816406 152.738281 164.585938 163.882812 170.929688 174.652344 C 173.3125 177.335938 175.648438 180.175781 177.9375 183.148438 C 176.878906 179.542969 175.960938 175.984375 175.1875 172.476562 C 170.207031 161.015625 164.003906 150.597656 156.59375 141.234375 " fill-opacity="1" fill-rule="nonzero"/><path fill="#88181a" d="M 171.304688 278.828125 C 170.355469 270.339844 170.171875 261.710938 170.757812 253.105469 C 166.171875 260.421875 160.957031 267.289062 155.210938 273.589844 C 153.132812 284.515625 152.425781 295.890625 153.109375 307.453125 C 160.453125 298.5 166.566406 288.886719 171.304688 278.828125 " fill-opacity="1" fill-rule="nonzero"/><path fill="#cd2a27" d="M 342.472656 302.335938 C 339.410156 295.636719 335.457031 287.886719 330.445312 279.742188 C 326.859375 279.929688 323.277344 280.027344 319.804688 280.027344 C 316.839844 280.027344 313.816406 279.960938 310.742188 279.820312 C 304.550781 279.53125 298.328125 278.90625 292.210938 277.953125 C 295 283.472656 297.515625 289.199219 299.707031 295.011719 C 301.972656 301.007812 303.996094 307.3125 305.726562 313.78125 C 315.046875 316.035156 323.660156 317.40625 330.988281 318.253906 C 335.09375 313.167969 338.921875 307.847656 342.472656 302.335938 " fill-opacity="1" fill-rule="nonzero"/><path fill="#88181a" d="M 347.527344 231.703125 C 341.28125 234.105469 334.992188 236.175781 328.8125 237.867188 C 322.785156 239.519531 316.679688 240.851562 310.613281 241.835938 C 314.96875 246.21875 319.136719 250.886719 323.011719 255.738281 C 327.011719 260.730469 330.882812 266.109375 334.527344 271.722656 C 344.003906 270.996094 352.550781 269.652344 359.75 268.199219 C 362.09375 262.0625 364.132812 255.773438 365.820312 249.339844 C 360.851562 243.953125 354.746094 237.859375 347.527344 231.703125 " fill-opacity="1" fill-rule="nonzero"/><g clip-path="url(#d9599899a6)"><path fill="#88181a" d="M 299.371094 320.148438 C 292.949219 318.429688 286.640625 316.402344 280.605469 314.125 C 274.800781 311.933594 269.074219 309.410156 263.554688 306.617188 C 264.5 312.738281 265.132812 318.96875 265.421875 325.164062 C 265.71875 331.589844 265.691406 338.214844 265.34375 344.878906 C 273.578125 349.953125 281.417969 353.941406 288.167969 357.027344 C 293.597656 353.472656 298.84375 349.660156 303.855469 345.574219 C 303.007812 338.207031 301.636719 329.53125 299.371094 320.148438 " fill-opacity="1" fill-rule="nonzero"/></g><path fill="#cd2a27" d="M 122.152344 111.886719 C 125.074219 123.097656 129.257812 133.699219 134.609375 143.4375 C 142.015625 147.660156 149.101562 152.582031 155.726562 158.125 C 152.503906 150.105469 150.011719 141.847656 148.296875 133.488281 C 140.683594 125.386719 131.898438 118.136719 122.152344 111.886719 " fill-opacity="1" fill-rule="nonzero"/><g clip-path="url(#b3497ce5dd)"><path fill="#cd2a27" d="M 371.484375 191.699219 C 365.152344 188.15625 357.570312 184.304688 348.933594 180.738281 C 343.753906 184.941406 338.414062 188.855469 333.035156 192.394531 C 327.867188 195.789062 322.464844 198.949219 316.941406 201.78125 C 322.449219 204.609375 327.855469 207.765625 333.035156 211.164062 C 338.386719 214.691406 343.722656 218.601562 348.933594 222.820312 C 357.621094 219.234375 365.238281 215.367188 371.589844 211.804688 C 371.738281 208.730469 371.820312 205.640625 371.820312 202.527344 C 371.820312 198.886719 371.683594 195.28125 371.484375 191.699219 " fill-opacity="1" fill-rule="nonzero"/></g><path fill="#88181a" d="M 195.890625 123.511719 C 194.488281 112.476562 191.644531 101.449219 187.429688 90.667969 C 183.207031 101.453125 180.363281 112.488281 178.960938 123.519531 C 182.484375 131.289062 185.324219 139.4375 187.425781 147.816406 C 189.53125 139.4375 192.367188 131.285156 195.890625 123.511719 " fill-opacity="1" fill-rule="nonzero"/><g clip-path="url(#7971075df5)"><path fill="#88181a" d="M 109.511719 344.878906 C 109.152344 338.203125 109.132812 331.574219 109.433594 325.164062 C 109.71875 318.96875 110.34375 312.746094 111.296875 306.621094 C 105.796875 309.40625 100.074219 311.925781 94.242188 314.132812 C 88.214844 316.40625 81.910156 318.425781 75.480469 320.148438 C 73.210938 329.53125 71.839844 338.210938 70.996094 345.566406 C 76.011719 349.660156 81.257812 353.46875 86.683594 357.027344 C 93.433594 353.945312 101.273438 349.953125 109.511719 344.878906 " fill-opacity="1" fill-rule="nonzero"/></g><path fill="#88181a" d="M 180.113281 170.871094 C 181.546875 174.164062 182.894531 177.582031 184.152344 181.117188 C 184.261719 177.367188 184.488281 173.699219 184.832031 170.125 C 183.636719 157.6875 180.957031 145.863281 176.804688 134.667969 C 176.316406 146.601562 177.40625 158.679688 180.113281 170.871094 " fill-opacity="1" fill-rule="nonzero"/><path fill="#cd2a27" d="M 69.125 313.789062 C 70.855469 307.320312 72.878906 301.003906 75.144531 295.011719 C 77.332031 289.210938 79.851562 283.480469 82.644531 277.953125 C 76.523438 278.90625 70.300781 279.53125 64.105469 279.820312 C 61.035156 279.960938 58.007812 280.027344 55.050781 280.027344 C 51.570312 280.027344 47.992188 279.929688 44.40625 279.742188 C 39.394531 287.886719 35.441406 295.636719 32.378906 302.339844 C 35.933594 307.851562 39.757812 313.167969 43.859375 318.253906 C 51.191406 317.410156 59.804688 316.039062 69.125 313.789062 " fill-opacity="1" fill-rule="nonzero"/><path fill="#88181a" d="M 97.585938 136.464844 C 103.824219 146.226562 111.078125 155.015625 119.175781 162.632812 C 127.527344 164.34375 135.78125 166.84375 143.800781 170.0625 C 138.257812 163.433594 133.328125 156.347656 129.117188 148.929688 C 119.375 143.574219 108.78125 139.394531 97.585938 136.464844 " fill-opacity="1" fill-rule="nonzero"/><path fill="#88181a" d="M 109.21875 210.25 C 116.976562 206.730469 125.113281 203.894531 133.492188 201.785156 C 125.089844 199.675781 116.933594 196.835938 109.171875 193.316406 C 98.160156 194.71875 87.140625 197.566406 76.375 201.777344 C 87.160156 206.003906 98.191406 208.847656 109.21875 210.25 " fill-opacity="1" fill-rule="nonzero"/><path fill="#88181a" d="M 155.726562 245.433594 C 149.101562 250.976562 142.019531 255.898438 134.609375 260.117188 C 129.261719 269.859375 125.078125 280.464844 122.152344 291.667969 C 131.902344 285.425781 140.679688 278.167969 148.296875 270.070312 C 150.011719 261.71875 152.507812 253.457031 155.726562 245.433594 " fill-opacity="1" fill-rule="nonzero"/><path fill="#cd2a27" d="M 90.351562 236.371094 C 98.921875 236.371094 107.429688 235.578125 115.648438 234.015625 C 121.949219 228.265625 128.804688 223.0625 136.101562 218.480469 C 132.808594 218.707031 129.523438 218.8125 126.28125 218.8125 C 121.117188 218.8125 115.929688 218.519531 110.449219 217.902344 C 100.375 222.644531 90.757812 228.765625 81.800781 236.117188 C 84.671875 236.28125 87.535156 236.371094 90.351562 236.371094 " fill-opacity="1" fill-rule="nonzero"/><path fill="#88181a" d="M 81.8125 167.445312 C 90.753906 174.792969 100.359375 180.902344 110.414062 185.644531 C 115.644531 185.0625 120.972656 184.769531 126.257812 184.769531 C 129.523438 184.769531 132.832031 184.882812 136.132812 185.109375 C 128.816406 180.511719 121.945312 175.292969 115.648438 169.542969 C 107.445312 167.980469 98.9375 167.1875 90.375 167.1875 C 87.554688 167.1875 84.6875 167.28125 81.8125 167.445312 " fill-opacity="1" fill-rule="nonzero"/><path fill="#88181a" d="M 156.539062 209.09375 C 159.816406 207.667969 163.222656 206.320312 166.746094 205.066406 C 162.996094 204.957031 159.339844 204.738281 155.769531 204.386719 C 143.339844 205.582031 131.535156 208.261719 120.34375 212.410156 C 132.273438 212.898438 144.34375 211.804688 156.539062 209.09375 " fill-opacity="1" fill-rule="nonzero"/><path fill="#88181a" d="M 160.3125 185.277344 C 149.554688 178.925781 138.414062 174.152344 126.917969 170.929688 C 136.28125 178.347656 146.6875 184.554688 158.148438 189.53125 C 161.648438 190.308594 165.203125 191.226562 168.800781 192.285156 C 165.832031 189.996094 163 187.65625 160.3125 185.277344 " fill-opacity="1" fill-rule="nonzero"/><path fill="#88181a" d="M 156.535156 194.464844 C 144.332031 191.753906 132.261719 190.660156 120.328125 191.148438 C 131.523438 195.308594 143.339844 197.996094 155.777344 199.191406 C 159.359375 198.847656 163.027344 198.617188 166.78125 198.511719 C 163.246094 197.253906 159.828125 195.898438 156.535156 194.464844 " fill-opacity="1" fill-rule="nonzero"/><path fill="#88181a" d="M 160.3125 218.285156 C 162.988281 215.914062 165.8125 213.585938 168.765625 211.300781 C 165.167969 212.355469 161.617188 213.265625 158.109375 214.039062 C 146.664062 219.015625 136.269531 225.222656 126.914062 232.628906 C 138.414062 229.40625 149.554688 224.632812 160.3125 218.285156 " fill-opacity="1" fill-rule="nonzero"/><path fill="#88181a" d="M 129.125 254.628906 C 133.324219 247.230469 138.242188 240.148438 143.777344 233.519531 C 135.765625 236.742188 127.503906 239.230469 119.152344 240.949219 C 111.066406 248.566406 103.816406 257.351562 97.582031 267.09375 C 108.785156 264.167969 119.378906 259.976562 129.125 254.628906 " fill-opacity="1" fill-rule="nonzero"/><path fill="#88181a" d="M 34.296875 177.511719 C 38.246094 180.582031 42.246094 183.445312 46.203125 186.035156 C 52.871094 190.421875 59.761719 194.304688 66.679688 197.597656 C 76.859375 193.097656 87.355469 189.742188 97.941406 187.609375 C 88.558594 182.308594 79.605469 175.875 71.289062 168.4375 C 63.730469 169.40625 55.984375 170.972656 48.25 173.082031 C 43.660156 174.339844 38.976562 175.824219 34.296875 177.511719 " fill-opacity="1" fill-rule="nonzero"/><path fill="#cd2a27" d="M 49.277344 272.207031 C 51.261719 272.273438 53.273438 272.304688 55.316406 272.304688 C 58.136719 272.304688 61.011719 272.242188 63.925781 272.101562 C 71.914062 271.71875 79.769531 270.808594 87.277344 269.402344 C 92.875 259.78125 99.394531 250.898438 106.699219 242.949219 C 101.078125 243.585938 95.375 243.917969 89.707031 243.917969 C 84.597656 243.917969 79.285156 243.640625 73.898438 243.089844 C 68.339844 248.335938 62.984375 254.167969 57.96875 260.417969 C 54.980469 264.148438 52.0625 268.101562 49.277344 272.207031 " fill-opacity="1" fill-rule="nonzero"/><path fill="#cd2a27" d="M 34.296875 226.046875 C 39.007812 227.742188 43.691406 229.230469 48.25 230.476562 C 55.980469 232.582031 63.730469 234.152344 71.296875 235.128906 C 79.59375 227.707031 88.542969 221.28125 97.945312 215.96875 C 87.425781 213.839844 76.9375 210.484375 66.691406 205.960938 C 59.742188 209.257812 52.800781 213.179688 46.050781 217.621094 C 42.160156 220.179688 38.207031 223.007812 34.296875 226.046875 " fill-opacity="1" fill-rule="nonzero"/><path fill="#88181a" d="M 77.789062 311.476562 C 82.582031 310.078125 87.246094 308.53125 91.6875 306.851562 C 99.175781 304.007812 106.367188 300.722656 113.0625 297.054688 C 115.414062 286.179688 118.882812 275.703125 123.375 265.867188 C 113.546875 270.367188 103.074219 273.824219 92.203125 276.1875 C 88.542969 282.886719 85.253906 290.074219 82.417969 297.570312 C 80.730469 302.027344 79.179688 306.691406 77.789062 311.476562 " fill-opacity="1" fill-rule="nonzero"/><path fill="#88181a" d="M 166.738281 225.859375 C 168.546875 222.773438 170.511719 219.695312 172.617188 216.609375 C 169.511719 218.734375 166.402344 220.710938 163.300781 222.535156 C 153.96875 230.800781 146.007812 239.910156 139.402344 249.828125 C 149.34375 243.207031 158.464844 235.21875 166.738281 225.859375 " fill-opacity="1" fill-rule="nonzero"/><path fill="#88181a" d="M 55.285156 131.25 C 53.253906 131.25 51.246094 131.285156 49.277344 131.347656 C 52.070312 135.464844 54.988281 139.421875 57.976562 143.144531 C 62.988281 149.398438 68.335938 155.222656 73.878906 160.457031 C 79.136719 159.925781 84.441406 159.65625 89.636719 159.65625 C 95.363281 159.65625 101.085938 159.984375 106.714844 160.636719 C 99.40625 152.671875 92.875 143.78125 87.273438 134.15625 C 79.714844 132.738281 71.800781 131.828125 63.746094 131.449219 C 60.882812 131.3125 58.0625 131.25 55.285156 131.25 " fill-opacity="1" fill-rule="nonzero"/><path fill="#88181a" d="M 166.730469 177.691406 C 158.457031 168.332031 149.34375 160.34375 139.398438 153.726562 C 146.019531 163.675781 154 172.796875 163.359375 181.082031 C 166.457031 182.902344 169.546875 184.878906 172.644531 186.996094 C 170.523438 183.894531 168.550781 180.792969 166.730469 177.691406 " fill-opacity="1" fill-rule="nonzero"/><path fill="#cd2a27" d="M 91.6875 96.714844 C 87.230469 95.023438 82.558594 93.46875 77.789062 92.078125 C 79.171875 96.859375 80.726562 101.523438 82.421875 105.992188 C 85.253906 113.476562 88.539062 120.671875 92.203125 127.375 C 103.074219 129.730469 113.546875 133.195312 123.371094 137.695312 C 118.878906 127.859375 115.421875 117.390625 113.066406 106.5 C 106.378906 102.847656 99.191406 99.558594 91.6875 96.714844 " fill-opacity="1" fill-rule="nonzero"/></svg>